<?xml version="1.0" encoding="UTF-8"?>
<svg id="Layer_1" data-name="Layer 1" xmlns="http://www.w3.org/2000/svg" xmlns:xlink="http://www.w3.org/1999/xlink" viewBox="0 0 132.29 132.29">
  <defs>
    <style>
      .cls-1 {
        fill: #fff;
      }

      .cls-2 {
        fill: url(#radial-gradient);
        opacity: .8;
      }

      .cls-3 {
        fill: url(#linear-gradient);
      }
    </style>
    <linearGradient id="linear-gradient" x1="0" y1="66.14" x2="132.29" y2="66.14" gradientUnits="userSpaceOnUse">
      <stop offset="0" stop-color="#545454"/>
      <stop offset=".38" stop-color="#4b4b4b"/>
      <stop offset=".99" stop-color="#333"/>
      <stop offset="1" stop-color="#333"/>
    </linearGradient>
    <radialGradient id="radial-gradient" cx="-.38" cy="136.13" fx="-.38" fy="136.13" r="203.44" gradientUnits="userSpaceOnUse">
      <stop offset="0" stop-color="#6b6b6b"/>
      <stop offset=".25" stop-color="#575757"/>
      <stop offset=".45" stop-color="#444"/>
      <stop offset=".49" stop-color="#3f3f3f"/>
      <stop offset=".82" stop-color="#212121"/>
      <stop offset="1" stop-color="#161616"/>
    </radialGradient>
  </defs>
  <path class="cls-3" d="M113.73,117.06c-2.58,10.68-13.33,17.25-24.01,14.67L15.23,113.73c-10.68-2.58-17.25-13.33-14.67-24.01L18.56,15.23C21.14,4.55,31.89-2.02,42.57,.56L117.06,18.56c10.68,2.58,17.24,13.33,14.66,24.01l-18,74.49Z"/>
  <path class="cls-2" d="M25.85,7.07H102.48c10.98,0,19.89,8.91,19.89,19.89V103.6c0,10.98-8.91,19.9-19.9,19.9H25.85c-10.98,0-19.89-8.91-19.89-19.89V26.96C5.96,15.98,14.87,7.07,25.85,7.07Z"/>
  <g>
    <path class="cls-1" d="M79.43,104.3h-31.51c-13.98,0-25.36-11.38-25.36-25.36v-27.76c0-13.98,11.38-25.36,25.36-25.36h31.51c13.98,0,25.36,11.38,25.36,25.36v27.76c0,13.98-11.38,25.36-25.36,25.36ZM47.92,31.46c-10.87,0-19.72,8.85-19.72,19.72v27.76c0,10.87,8.85,19.72,19.72,19.72h31.51c10.87,0,19.72-8.85,19.72-19.72v-27.76c0-10.88-8.85-19.72-19.72-19.72h-31.51Z"/>
    <path class="cls-1" d="M63.67,87.64c-12.45,0-22.57-10.12-22.57-22.57s10.12-22.57,22.57-22.57,22.57,10.13,22.57,22.57-10.12,22.57-22.57,22.57Zm0-39.51c-9.34,0-16.94,7.6-16.94,16.94s7.6,16.94,16.94,16.94,16.94-7.6,16.94-16.94-7.6-16.94-16.94-16.94Z"/>
    <path class="cls-1" d="M90.58,43.19c0,2.59-2.1,4.68-4.68,4.68s-4.68-2.1-4.68-4.68,2.1-4.68,4.68-4.68,4.68,2.1,4.68,4.68Z"/>
  </g>
</svg>