<?xml version="1.0" encoding="UTF-8"?>
<svg id="Layer_1" data-name="Layer 1" xmlns="http://www.w3.org/2000/svg" viewBox="0 0 514.5 444.71">
  <defs>
    <style>
      .cls-1 {
        fill: #00a551;
      }

      .cls-2 {
        fill: #fff;
      }

      .cls-3 {
        fill: #ec1c24;
      }
    </style>
  </defs>
  <path class="cls-2" d="M292.35,216.69h.03c-.17-.48-.38-.99-.55-1.47-2.05-5.67-4-11.07-5.84-16.26-10.73-30.06-18.11-52.06-23.57-69.42l-.03-.14c-1.2-3.83-2.29-7.41-3.31-10.83h-1.26c-.89,3.35-1.91,7.04-3.04,11.07l-.03,.1c-1.43,4.95-3.04,10.39-4.82,16.23-5.94,19.71-13.84,43.97-22.72,69.49-.14,.41-.27,.82-.41,1.23h.03l-6.46,20.09,41.13-23.74,10.08-5.77,21.08,59.75-100.64,58.11-.34,.2H107.19l11.21-29.65L205.54,65.35h110.14l38.16,94.63,66.62,165.35h-90.8l-37.31-108.64Z"/>
  <g>
    <path class="cls-1" d="M269.21,240.7h.27l.07-.2-.34,.2Z"/>
    <path class="cls-1" d="M269.4,443c-111.61,0-202.41-90.8-202.41-202.41,0-44.63,14.24-86.94,41.18-122.36l5.44,4.14c-26.03,34.21-39.79,75.09-39.79,118.22,0,107.84,87.74,195.58,195.58,195.58,73.08,0,139.52-40.26,173.39-105.06l6.06,3.17c-35.05,67.07-103.8,108.73-179.44,108.73Z"/>
    <path class="cls-1" d="M123.91,129.98c-14.45,0-26.2-11.76-26.2-26.2s11.76-26.2,26.2-26.2,26.2,11.76,26.2,26.2-11.76,26.2-26.2,26.2Zm0-42.16c-8.8,0-15.95,7.16-15.95,15.96s7.16,15.95,15.95,15.95,15.96-7.16,15.96-15.95-7.16-15.96-15.96-15.96Z"/>
    <path class="cls-1" d="M453.26,340.25c-14.45,0-26.2-11.76-26.2-26.2s11.76-26.2,26.2-26.2,26.2,11.76,26.2,26.2-11.76,26.2-26.2,26.2Zm0-42.16c-8.8,0-15.95,7.16-15.95,15.96s7.16,15.95,15.95,15.95,15.96-7.16,15.96-15.95-7.16-15.96-15.96-15.96Z"/>
  </g>
  <g>
    <path class="cls-3" d="M263.82,250.75h-.34s-.07,.27-.07,.27l.41-.27Z"/>
    <path class="cls-3" d="M469.58,394.12l-5.6-3.91c30.68-44.01,45.71-95.69,43.47-149.46C501.86,106.3,387.98,1.38,253.46,7.05c-91.12,3.79-171.87,57.43-210.73,139.98l-6.18-2.91C76.49,59.26,159.5,4.12,253.17,.22c138.16-5.76,255.35,102.03,261.11,240.25,2.3,55.27-13.15,108.41-44.7,153.65Z"/>
    <path class="cls-3" d="M451.43,444.71c-16.69,0-30.59-13.21-31.3-30.04h0c-.72-17.26,12.74-31.9,30.01-32.61,8.34-.35,16.36,2.58,22.52,8.25,6.16,5.67,9.75,13.39,10.09,21.76,.72,17.26-12.74,31.9-30.01,32.61-.44,.02-.88,.03-1.32,.03Zm-21.06-30.46c.49,11.62,10.39,20.66,21.95,20.2,5.63-.24,10.83-2.65,14.64-6.79,3.81-4.15,5.78-9.53,5.55-15.16-.24-5.63-2.65-10.83-6.79-14.64-4.14-3.81-9.52-5.75-15.16-5.55-11.62,.48-20.68,10.33-20.2,21.95h0Z"/>
    <path class="cls-3" d="M31.31,200.46c-7.88,0-15.35-2.91-21.19-8.28C3.96,186.52,.37,178.79,.03,170.43H.03c-.72-17.27,12.75-31.9,30.01-32.61,8.35-.34,16.36,2.58,22.52,8.25,6.16,5.67,9.75,13.39,10.09,21.76,.35,8.36-2.58,16.36-8.25,22.52-5.67,6.16-13.4,9.74-21.76,10.09-.45,.02-.89,.03-1.33,.03Zm-21.04-30.46c.24,5.63,2.65,10.83,6.79,14.64,4.14,3.81,9.52,5.77,15.16,5.55,5.63-.23,10.83-2.65,14.64-6.79,3.81-4.15,5.79-9.53,5.55-15.16-.24-5.63-2.65-10.83-6.79-14.64-4.15-3.81-9.53-5.77-15.16-5.55-11.62,.48-20.68,10.33-20.2,21.95h0Z"/>
  </g>
</svg>