<?xml version="1.0" encoding="UTF-8"?>
<svg id="Layer_1" data-name="Layer 1" xmlns="http://www.w3.org/2000/svg" xmlns:xlink="http://www.w3.org/1999/xlink" viewBox="0 0 132.29 132.29">
  <defs>
    <style>
      .cls-1 {
        fill: #fff;
      }

      .cls-2 {
        fill: url(#radial-gradient);
      }

      .cls-2, .cls-3 {
        opacity: .8;
      }

      .cls-3 {
        fill: url(#radial-gradient-2);
      }
    </style>
    <radialGradient id="radial-gradient" cx="66.14" cy="66.14" fx="66.14" fy="66.14" r="66.14" gradientUnits="userSpaceOnUse">
      <stop offset="0" stop-color="#6b6b6b"/>
      <stop offset=".25" stop-color="#575757"/>
      <stop offset=".45" stop-color="#444"/>
      <stop offset=".49" stop-color="#3f3f3f"/>
      <stop offset=".82" stop-color="#212121"/>
      <stop offset="1" stop-color="#161616"/>
    </radialGradient>
    <radialGradient id="radial-gradient-2" cx="-14.95" cy="172.66" fx="-14.95" fy="172.66" r="220.23" xlink:href="#radial-gradient"/>
  </defs>
  <path class="cls-2" d="M113.73,117.06c-2.58,10.68-13.33,17.25-24.01,14.67L15.23,113.73c-10.68-2.58-17.25-13.33-14.67-24.01L18.56,15.23C21.14,4.55,31.89-2.02,42.57,.56L117.06,18.56c10.68,2.58,17.25,13.33,14.66,24.01l-18,74.49Z"/>
  <path class="cls-3" d="M25.85,7.07H102.48c10.98,0,19.9,8.92,19.9,19.9V103.6c0,10.98-8.91,19.9-19.9,19.9H25.85c-10.98,0-19.89-8.91-19.89-19.89V26.96C5.95,15.98,14.87,7.07,25.85,7.07Z"/>
  <g>
    <path class="cls-1" d="M94.67,44.95c-1.5,.42-2.68,.35-2.68,.35l.05-.29c1.4-1.12,4.92-4.55,5.39-6.16,.2-.69-.04-.93-.04-.96l-4.5,1.91-3.77,1.7h0c-2.6-2.75-6.54-4.51-10.94-4.51-7.83,0-14.18,5.55-14.18,12.4,0,1.25,.19,3.54,.58,4.67,0,.36,.01-.36,0,0-5.04-.14-11.51-2.21-17.27-5.12-11.36-5.76-12.07-9.74-12.07-9.74-1.78,1.9-2.7,8.17-.9,13.08,1.16,3.15,5.14,5.97,5.14,5.97h0s-1.78,.03-3.64-.6c-1.86-.63-2.57-1.25-2.57-1.25-1.11,2.71,1.12,7.53,4.96,10.99,2.24,2.02,6.33,3.29,6.33,3.29l-6.39,.18c-.36,6.21,13.03,9.9,13.03,9.9h0c-3.92,3.02-8.48,4.86-13.36,4.86-2.53,0-4.97-.38-7.29-1.07,6.45,5.31,14.73,8.98,23.74,8.51,23.9-1.25,37.4-21.8,38.04-41.98l.03,.04s1.12-.56,3.52-2.95c2.39-2.39,3.88-5.2,3.88-5.2,0,0-3.58,1.56-5.08,1.97Z"/>
    <path class="cls-1" d="M97.39,37.91c.02,.38,0,.04,0,0h0Z"/>
  </g>
</svg>