<?xml version="1.0" encoding="UTF-8"?>
<svg id="Layer_1" data-name="Layer 1" xmlns="http://www.w3.org/2000/svg" xmlns:xlink="http://www.w3.org/1999/xlink" viewBox="0 0 132.29 132.29">
  <defs>
    <style>
      .cls-1 {
        fill: #fff;
      }

      .cls-2 {
        fill: url(#radial-gradient);
      }

      .cls-2, .cls-3 {
        opacity: .8;
      }

      .cls-3 {
        fill: url(#radial-gradient-2);
      }
    </style>
    <radialGradient id="radial-gradient" cx="66.14" cy="66.14" fx="66.14" fy="66.14" r="66.14" gradientUnits="userSpaceOnUse">
      <stop offset="0" stop-color="#6b6b6b"/>
      <stop offset=".25" stop-color="#575757"/>
      <stop offset=".45" stop-color="#444"/>
      <stop offset=".49" stop-color="#3f3f3f"/>
      <stop offset=".82" stop-color="#212121"/>
      <stop offset="1" stop-color="#161616"/>
    </radialGradient>
    <radialGradient id="radial-gradient-2" cx="-9.66" cy="143.08" fx="-9.66" fy="143.08" r="210.35" xlink:href="#radial-gradient"/>
  </defs>
  <path class="cls-2" d="M113.73,117.06c-2.58,10.68-13.33,17.25-24.01,14.67L15.23,113.73c-10.68-2.58-17.25-13.33-14.67-24.01L18.56,15.23C21.14,4.55,31.89-2.02,42.57,.56L117.06,18.56c10.68,2.58,17.24,13.33,14.66,24.01l-18,74.49Z"/>
  <path class="cls-3" d="M25.85,7.07H102.48c10.98,0,19.89,8.91,19.89,19.89V103.6c0,10.98-8.91,19.9-19.9,19.9H25.85c-10.98,0-19.89-8.91-19.89-19.89V26.96C5.96,15.98,14.87,7.07,25.85,7.07Z"/>
  <g>
    <path class="cls-1" d="M63.67,100.27c-6.63,0-13.13-1.75-18.89-5.08l-14.76,5.08,3.03-15.63c-4.76-6.51-7.26-14.18-7.26-22.25,0-20.88,16.99-37.88,37.88-37.88s37.88,16.99,37.88,37.88-16.99,37.88-37.88,37.88Zm-18.21-11.28l1.14,.72c5.15,3.22,11.05,4.93,17.07,4.93,17.78,0,32.24-14.46,32.24-32.24s-14.46-32.24-32.24-32.24S31.43,44.61,31.43,62.39c0,7.23,2.37,14.09,6.85,19.82l.79,1.01-1.66,8.54,8.05-2.77Z"/>
    <path class="cls-1" d="M44.55,47.84s2.22-3.88,4.03-4.11c1.81-.22,4.14-.22,4.77,.96,.63,1.18,3.44,8.07,3.44,8.07,0,0,.48,1.18-.26,2.33-.74,1.15-2.4,2.81-2.4,2.81,0,0-.92,1.18,0,2.44,.93,1.26,2.36,3.57,5.33,6.54,2.96,2.97,8.66,5.08,8.66,5.08,0,0,.81,.11,1.33-.41,.52-.52,3.33-4.03,3.33-4.03,0,0,.9-1.16,2.41-.48,1.5,.68,7.99,3.92,7.99,3.92,0,0,.76,.28,.76,1.42s-.46,3.95-1.41,4.9c-.95,.95-3.72,3.87-7.89,3.87s-14.1-3.39-19.39-8.68c-5.29-5.29-9.99-10.66-11.1-15.54-1.11-4.88-.96-7.09,.41-9.1Z"/>
  </g>
</svg>